# xmcd
#
# Track frame offsets: 
#        150
#        17969
#        49890
#        90588
#        104190
#        125267
#        146345
#        171635
#        196900
#        210902
#        232243
#        251165
#        266746
#        286985
#        306739
#
# Disc length: 4339 seconds
#
# Revision: 0
# Processed by: cddbd v1.5.2PL0 Copyright (c) Steve Scherf et al.
# Submitted via: ExactAudioCopyFreeDBPlugin 1.0
#
DISCID=ed10f10f
DTITLE=Various Artist - The Danish Folk, Blues and Ragtime Guitar Festi
DTITLE=val [CD2]
DYEAR=2010
DGENRE=Blues
TTITLE0=Nick Katzman - Me And The Devil
TTITLE1=Nick Katzman - Shake 'Em On Down
TTITLE2=Nick Katzman - Crossroad Blues
TTITLE3=Katzman and Winslow - Mississippi Blues
TTITLE4=Katzman and Winslow - Moon's Going Down
TTITLE5=Katzman and Winslow - The Bullfrog Blues
TTITLE6=Hans Theessink - St. James Infirmary
TTITLE7=Hans Theessink - Blind Willie
TTITLE8=Hans Theessink - Bourgeois Blues
TTITLE9=Hans Theessink - Trouble In Mind
TTITLE10=H.P. Lange - Pony Blues
TTITLE11=H.P. Lange - Things About Coming My Way
TTITLE12=H.P. Lange - Walking Blues
TTITLE13=H.P. Lange - Aberdeen Blues
TTITLE14=H.P. Lange - Keep It Clean
EXTD=
EXTT0=
EXTT1=
EXTT2=
EXTT3=
EXTT4=
EXTT5=
EXTT6=
EXTT7=
EXTT8=
EXTT9=
EXTT10=
EXTT11=
EXTT12=
EXTT13=
EXTT14=
PLAYORDER=
